#!OML:ASF X:\für Bonn\!DataBase\2005_08_12_Daniel\c3d\Daniel.ASF
:FULLY-SPECIFIED
:DEGREES
47
root 4.36248 17.1819 1.9577 -160.199 -82.9916 158.459
lowerback 34.1646 2.15289 -1.42701
upperback 10.0686 0.405535 -5.01898
thorax -6.30131 -0.271179 -4.60547
lowerneck 2.61458 0.17672 1.08817
upperneck 9.23498 -0.101957 2.09491
head 2.46237 -0.0393513 0.474808
rclavicle -1.03368e-014 -5.56597e-014
rhumerus -8.71759 12.3034 -100.91
rradius 37.7041
rwrist 28.9696
rhand -38.6366 8.96361
rfingers 7.12502
rthumb -11.6532 339.308
lclavicle -1.03368e-014 -5.56597e-014
lhumerus -193.592 197.928 -79.7995
lradius 45.8548
lwrist 18.2826
lhand -23.5802 11.3004
lfingers 7.12502
lthumb 2.88282 41.2607
rfemur -16.3199 2.95042 4.1386
rtibia 32.0612
rfoot 349.289 -1.5231
rtoes -12.0771
lfemur -18.6029 -16.3739 -20.1311
ltibia 38.0369
lfoot -23.4284 8.76978
ltoes 3.11574
48
root 4.37238 17.1843 1.94216 -158.603 -83.2333 157.061
lowerback 34.3005 2.15512 -1.5959
upperback 10.1285 0.340081 -5.01294
thorax -6.28964 -0.306404 -4.4867
lowerneck 2.59644 0.104609 1.19752
upperneck 9.30313 -0.207113 2.16482
head 2.4892 -0.086105 0.477316
rclavicle 1.59028e-014 -2.38542e-014
rhumerus -8.31491 12.0947 -100.945
rradius 37.2994
rwrist 28.4591
rhand -37.5628 8.20624
rfingers 7.12502
rthumb -10.6175 338.494
lclavicle 1.59028e-014 -2.38542e-014
lhumerus -193.123 197.837 -79.7436
lradius 45.4802
lwrist 18.398
lhand -23.7798 11.4043
lfingers 7.12502
lthumb 2.69005 41.367
rfemur -16.1809 3.52859 4.11663
rtibia 31.5698
rfoot 348.914 -1.75115
rtoes -11.8046
lfemur -18.8599 -16.691 -20.0792
ltibia 37.9547
lfoot -23.3623 8.81803
ltoes 3.03256
49
root 4.38328 17.1887 1.92436 -156.882 -83.4692 155.549
lowerback 34.4466 2.16682 -1.78233
upperback 10.1764 0.282187 -4.99158
thorax -6.2933 -0.338054 -4.34532
lowerneck 2.5592 0.0291756 1.23206
upperneck 9.39493 -0.321956 2.28384
head 2.52774 -0.138508 0.50808
rclavicle 3.97569e-015 5.56597e-015
rhumerus -8.00558 11.8952 -100.968
rradius 37.0356
rwrist 28.0024
rhand -36.6548 7.55893
rfingers 7.12502
rthumb -9.74163 337.804
lclavicle 3.97569e-015 5.56597e-015
lhumerus -192.683 197.762 -79.6532
lradius 45.1372
lwrist 18.5156
lhand -24.0316 11.4547
lfingers 7.12502
lthumb 2.44684 41.4205
rfemur -16.0652 4.10149 4.11934
rtibia 31.1187
rfoot 348.434 -2.1649
rtoes -11.7271
lfemur -19.1226 -16.9963 -20.0207
ltibia 37.8627
lfoot -23.2586 8.87579
ltoes 2.98053
50
root 4.39447 17.1922 1.90452 -154.872 -83.7207 153.803
lowerback 34.5371 2.16464 -1.96537
upperback 10.2184 0.212469 -4.98021
thorax -6.28343 -0.373987 -4.21174
lowerneck 2.54222 -0.0462874 1.32361
upperneck 9.43239 -0.430916 2.36304
head 2.54431 -0.187277 0.516335
rclavicle 3.57812e-014 2.54444e-014
rhumerus -7.77862 11.7011 -101.017
rradius 36.9635
rwrist 27.5793
rhand -35.9006 6.99165
rfingers 7.12502
rthumb -9.01392 337.204
lclavicle 3.57812e-014 2.54444e-014
lhumerus -192.266 197.694 -79.5819
lradius 44.8718
lwrist 18.6616
lhand -24.2409 11.6195
lfingers 7.12502
lthumb 2.24469 41.5874
rfemur -16.0168 4.60603 4.13949
rtibia 30.7162
rfoot 347.867 -2.69961
rtoes -11.5702
lfemur -19.4525 -17.2978 -19.9286
ltibia 37.7625
lfoot -23.1329 8.89929
ltoes 2.96563
51
root 4.4062 17.1967 1.88228 -152.774 -83.9555 151.957
lowerback 34.6569 2.17228 -2.17608
upperback 10.2441 0.145368 -4.95573
thorax -6.30077 -0.408941 -4.05101
lowerneck 2.50997 -0.106801 1.34761
upperneck 9.49003 -0.524932 2.48774
head 2.57074 -0.229509 0.550848
rclavicle 2.14687e-014 4.77083e-014
rhumerus -7.68274 11.5411 -101.058
rradius 37.1007
rwrist 27.1849
rhand -35.3914 6.55094
rfingers 7.12502
rthumb -8.52249 336.743
lclavicle 2.14687e-014 4.77083e-014
lhumerus -191.892 197.586 -79.4874
lradius 44.6449
lwrist 18.7884
lhand -24.4866 11.814
lfingers 7.12502
lthumb 2.00743 41.7843
rfemur -15.9696 5.06544 4.18336
rtibia 30.3446
rfoot 347.279 -3.34085
rtoes -11.4705
lfemur -19.7683 -17.5748 -19.8326
ltibia 37.6558
lfoot -23.0023 8.9452
ltoes 2.85162
52
root 4.41667 17.2014 1.8589 -150.418 -84.1991 149.866
lowerback 34.7529 2.17044 -2.36515
upperback 10.2713 0.0753241 -4.93668
thorax -6.30748 -0.444524 -3.90636
lowerneck 2.52995 -0.180593 1.40671
upperneck 9.48335 -0.629887 2.57831
head 2.56613 -0.277541 0.568113
rclavicle -3.18055e-015 -4.53229e-014
rhumerus -7.66029 11.3271 -101.135
rradius 37.3854
rwrist 26.812
rhand -35.1904 6.24424
rfingers 7.12502
rthumb -8.3285 336.428
lclavicle -3.18055e-015 -4.53229e-014
lhumerus -191.555 197.562 -79.4069
lradius 44.4913
lwrist 19.0594
lhand -24.7685 11.9862
lfingers 7.12502
lthumb 1.73516 41.9589
rfemur -15.9392 5.44901 4.23449
rtibia 30.009
rfoot 346.748 -4.03284
rtoes -11.1959
lfemur -20.0953 -17.879 -19.7202
ltibia 37.5336
lfoot -22.8781 8.93866
ltoes 2.88059
